<?xml version="1.0" standalone="no"?><!DOCTYPE svg PUBLIC "-//W3C//DTD SVG 1.1//EN" "http://www.w3.org/Graphics/SVG/1.1/DTD/svg11.dtd"><svg t="1748505546294" class="icon" viewBox="0 0 1024 1024" version="1.1" xmlns="http://www.w3.org/2000/svg" p-id="10214" xmlns:xlink="http://www.w3.org/1999/xlink" width="200" height="200"><path d="M0 963.114667C0 996.736 223.637333 1024 499.52 1024c275.861333 0 499.498667-27.264 499.498667-60.885333s-223.637333-60.864-499.498667-60.864C223.637333 902.250667 0 929.493333 0 963.114667zM739.904 63.317333v6.698667l51.84 46.869333 199.786667-94.357333-180.437334 112.64v55.381333l28.714667-27.392V162.56l0.64 0.597333 28.693333 27.392L1024 6.08V0zM23.722667 857.173333c0 10.368 8.106667 18.282667 18.730666 18.282667s18.730667-7.914667 18.730667-18.261333-8.106667-18.261333-18.730667-18.261334c-9.984 0-18.730667 8.533333-18.730666 18.261334z m981.546666 48.725334c-18.730667 4.864-23.104 8.533333-28.096 27.392-4.992-18.261333-8.746667-22.528-28.096-27.392 18.730667-4.885333 23.104-9.130667 28.096-27.392 4.992 18.261333 8.746667 22.506667 28.096 27.392z m-28.096-70.016c-30.592 7.893333-36.842667 13.994667-44.949333 43.84-8.106667-29.845333-14.378667-35.925333-44.970667-43.84 30.592-7.914667 36.842667-14.613333 44.970667-43.84 7.466667 29.845333 14.357333 35.925333 44.949333 43.84zM128 225.856c-18.730667 4.885333-22.485333 8.533333-27.477333 26.794667-4.992-18.261333-8.746667-21.909333-27.477334-26.794667 18.730667-4.864 22.485333-8.533333 27.477334-26.773333 4.373333 18.261333 8.746667 21.909333 27.477333 26.773333z m74.304-93.738667c-48.704 12.16-58.688 22.528-71.808 69.994667-12.48-47.466667-23.104-57.216-71.808-69.994667 48.704-12.181333 58.688-22.528 71.808-70.016 12.48 46.869333 23.104 57.216 71.808 70.016z" fill="#70A3FB" p-id="10215"></path><path d="M690.816 429.077333h-69.482667l89.450667-118.933333c12.181333-15.850667 8.106667-39.637333-8.149333-53.525333-16.256-11.882667-40.64-7.914667-54.869334 7.936l-121.984 162.538666H477.013333l-182.954666-110.997333c-18.304-9.92-42.688-5.973333-52.864 11.882667-8.106667 11.904-8.106667 21.802667-6.101334 31.722666 2.048 9.898667 8.149333 17.834667 16.277334 23.786667l77.226666 45.589333h-34.56c-54.869333 0-99.584 43.605333-99.584 97.109334v301.290666c0 53.504 44.714667 97.130667 99.605334 97.130667h396.8c54.869333 0 99.605333-43.626667 99.605333-97.130667V526.186667c0-53.504-44.736-97.109333-99.626667-97.109334zM250.624 625.28l-1.962667-9.578667c-1.962667-13.418667 5.888-26.816 19.648-28.736l106.112-19.157333c13.738667-1.92 27.52 5.76 29.461334 19.157333l1.962666 9.578667c1.962667 13.418667-5.888 26.816-19.626666 28.736l-106.112 19.157333c-13.76 1.92-27.52-5.76-29.482667-19.157333z m278.869333 160.32c-11.861333 0-23.744-5.781333-33.642666-17.365333-1.962667-1.92-3.946667-1.92-5.930667 0-23.744 23.168-61.354667 21.226667-83.114667-3.84-9.898667-13.525333-15.829333-27.029333-15.829333-44.373334 0-9.664 7.914667-15.445333 15.829333-15.445333s15.829333 5.781333 15.829334 15.424c0 7.722667 1.984 17.365333 7.914666 23.168 7.914667 11.562667 21.76 13.504 31.658667 3.84 7.914667-5.76 11.882667-13.504 11.882667-23.146667v-3.84c0-17.386667 33.642667-17.386667 33.642666 0 0 7.701333 1.984 15.424 7.893334 23.146667 11.882667 13.504 27.733333 13.504 37.610666-1.92 3.968-5.802667 5.952-13.525333 5.952-21.248s5.930667-13.504 11.861334-15.424c5.930667-1.92 13.866667 1.92 17.813333 7.701333 1.984 1.92 1.984 3.861333 1.984 7.722667 1.984 23.168-5.952 42.453333-25.728 55.957333-9.898667 5.781333-19.797333 9.642667-35.626667 9.642667z m205.696-169.941333l-1.984 9.6a23.637333 23.637333 0 0 1-29.44 19.136l-104.106666-19.157334c-13.76-1.92-23.573333-15.317333-19.648-28.714666l1.962666-9.6a23.637333 23.637333 0 0 1 29.44-19.136l104.106667 19.157333c13.76 1.92 21.632 15.317333 19.669333 28.714667z" fill="#70A3FB" p-id="10216"></path></svg>